<?xml version="1.0" encoding="utf-8"?>
<!-- Generator: Adobe Illustrator 20.1.0, SVG Export Plug-In . SVG Version: 6.00 Build 0)  -->
<svg version="1.1" id="Layer_1" xmlns="http://www.w3.org/2000/svg" xmlns:xlink="http://www.w3.org/1999/xlink" x="0px" y="0px"
	 viewBox="0 0 500 500" style="enable-background:new 0 0 500 500;" xml:space="preserve">
<style type="text/css">
	.st0{fill:none;stroke:#000000;stroke-width:2;stroke-miterlimit:10;}
	.st1{fill:none;stroke:#000000;stroke-width:3;stroke-miterlimit:10;}
	.st2{fill:#FFFFFF;}
</style>
<path class="st0" d="M250,451"/>
<g>
	<path d="M83.4,358l-3.4,2.6c-1.9-2.4-4.1-4.3-6.8-5.6c-2.6-1.3-5.5-1.9-8.7-1.9c-3.4,0-6.6,0.8-9.6,2.5c-2.9,1.7-5.2,3.9-6.8,6.7
		s-2.4,5.9-2.4,9.4c0,5.3,1.8,9.6,5.4,13.2s8.1,5.3,13.6,5.3c6,0,11.1-2.4,15.1-7.1l3.4,2.6c-2.1,2.7-4.8,4.8-8,6.3
		c-3.2,1.5-6.8,2.2-10.8,2.2c-7.5,0-13.5-2.5-17.8-7.5c-3.7-4.2-5.5-9.4-5.5-15.4c0-6.3,2.2-11.6,6.6-15.9s10-6.5,16.6-6.5
		c4,0,7.7,0.8,10.9,2.4C78.7,352.9,81.3,355.1,83.4,358z"/>
	<path d="M88.6,350h5l11,17.8l10.9-17.8h5l-13.7,22.5v20.6h-4.2v-20.6L88.6,350z"/>
	<path d="M167.7,358l-3.4,2.6c-1.9-2.4-4.1-4.3-6.8-5.6s-5.5-1.9-8.7-1.9c-3.4,0-6.6,0.8-9.6,2.5c-2.9,1.7-5.2,3.9-6.8,6.7
		s-2.4,5.9-2.4,9.4c0,5.3,1.8,9.6,5.4,13.2s8.1,5.3,13.6,5.3c6,0,11.1-2.4,15.1-7.1l3.4,2.6c-2.1,2.7-4.8,4.8-8,6.3
		s-6.8,2.2-10.8,2.2c-7.5,0-13.5-2.5-17.8-7.5c-3.7-4.2-5.5-9.4-5.5-15.4c0-6.3,2.2-11.6,6.6-15.9s10-6.5,16.6-6.5
		c4,0,7.7,0.8,10.9,2.4C163,352.9,165.6,355.1,167.7,358z"/>
	<path d="M176.3,350h4.3v38.9h16.6v4.2h-20.9V350z"/>
	<path d="M224.6,348.9c6.5,0,12,2.2,16.4,6.5c4.4,4.4,6.6,9.7,6.6,16.1c0,6.3-2.2,11.7-6.6,16.1s-9.7,6.6-16,6.6
		c-6.4,0-11.8-2.2-16.2-6.6c-4.4-4.4-6.6-9.7-6.6-15.9c0-4.1,1-8,3-11.5c2-3.5,4.7-6.3,8.2-8.3C216.8,349.9,220.5,348.9,224.6,348.9
		z M224.8,353.1c-3.2,0-6.2,0.8-9.1,2.5c-2.9,1.7-5.1,3.9-6.7,6.7c-1.6,2.8-2.4,6-2.4,9.4c0,5.1,1.8,9.4,5.3,13
		c3.6,3.5,7.8,5.3,12.8,5.3c3.3,0,6.4-0.8,9.3-2.4c2.8-1.6,5.1-3.8,6.7-6.7c1.6-2.8,2.4-5.9,2.4-9.4c0-3.4-0.8-6.5-2.4-9.3
		c-1.6-2.8-3.8-5-6.7-6.6C231.1,353.9,228,353.1,224.8,353.1z"/>
	<path d="M296.3,358l-3.4,2.6c-1.9-2.4-4.1-4.3-6.8-5.6s-5.5-1.9-8.7-1.9c-3.4,0-6.6,0.8-9.6,2.5c-2.9,1.7-5.2,3.9-6.8,6.7
		s-2.4,5.9-2.4,9.4c0,5.3,1.8,9.6,5.4,13.2s8.1,5.3,13.6,5.3c6,0,11.1-2.4,15.1-7.1l3.4,2.6c-2.1,2.7-4.8,4.8-8,6.3
		s-6.8,2.2-10.8,2.2c-7.5,0-13.5-2.5-17.8-7.5c-3.7-4.2-5.5-9.4-5.5-15.4c0-6.3,2.2-11.6,6.6-15.9s10-6.5,16.6-6.5
		c4,0,7.7,0.8,10.9,2.4C291.6,352.9,294.3,355.1,296.3,358z"/>
	<path d="M305.2,350h8.6c4.8,0,8,0.2,9.7,0.6c2.6,0.6,4.6,1.8,6.2,3.8c1.6,1.9,2.4,4.3,2.4,7.1c0,2.3-0.6,4.4-1.7,6.2
		c-1.1,1.8-2.7,3.1-4.7,4c-2.1,0.9-4.9,1.4-8.5,1.4l15.5,20h-5.3l-15.5-20h-2.4v20h-4.3V350z M309.5,354.2v14.6l7.4,0.1
		c2.9,0,5-0.3,6.4-0.8c1.4-0.5,2.5-1.4,3.2-2.6s1.2-2.5,1.2-4c0-1.4-0.4-2.8-1.2-3.9c-0.8-1.2-1.8-2-3.1-2.5
		c-1.3-0.5-3.4-0.8-6.3-0.8H309.5z"/>
	<path d="M361.9,348.9c6.5,0,12,2.2,16.4,6.5c4.4,4.4,6.6,9.7,6.6,16.1c0,6.3-2.2,11.7-6.6,16.1s-9.7,6.6-16,6.6
		c-6.4,0-11.8-2.2-16.2-6.6c-4.4-4.4-6.6-9.7-6.6-15.9c0-4.1,1-8,3-11.5c2-3.5,4.7-6.3,8.2-8.3C354.1,349.9,357.9,348.9,361.9,348.9
		z M362.1,353.1c-3.2,0-6.2,0.8-9.1,2.5c-2.9,1.7-5.1,3.9-6.7,6.7c-1.6,2.8-2.4,6-2.4,9.4c0,5.1,1.8,9.4,5.3,13
		c3.6,3.5,7.8,5.3,12.8,5.3c3.3,0,6.4-0.8,9.3-2.4c2.8-1.6,5.1-3.8,6.7-6.7c1.6-2.8,2.4-5.9,2.4-9.4c0-3.4-0.8-6.5-2.4-9.3
		c-1.6-2.8-3.8-5-6.7-6.6C368.4,353.9,365.4,353.1,362.1,353.1z"/>
	<path d="M389.1,385.1l3.7-2.2c2.6,4.7,5.6,7.1,8.9,7.1c1.4,0,2.8-0.3,4.1-1s2.2-1.6,2.9-2.7c0.7-1.1,1-2.3,1-3.6
		c0-1.4-0.5-2.9-1.5-4.2c-1.3-1.9-3.8-4.2-7.4-6.9c-3.6-2.7-5.8-4.7-6.7-5.9c-1.5-2-2.3-4.2-2.3-6.6c0-1.9,0.4-3.6,1.3-5.1
		c0.9-1.5,2.2-2.8,3.8-3.6c1.6-0.9,3.4-1.3,5.3-1.3c2,0,3.9,0.5,5.7,1.5c1.8,1,3.6,2.9,5.6,5.6l-3.5,2.7c-1.6-2.1-3-3.6-4.1-4.2
		c-1.1-0.7-2.4-1-3.7-1c-1.7,0-3.2,0.5-4.3,1.6s-1.7,2.4-1.7,3.9c0,0.9,0.2,1.8,0.6,2.7s1.1,1.8,2.1,2.9c0.6,0.5,2.4,2,5.6,4.3
		c3.7,2.8,6.3,5.2,7.7,7.4c1.4,2.1,2.1,4.3,2.1,6.5c0,3.1-1.2,5.8-3.6,8.1c-2.4,2.3-5.3,3.5-8.7,3.5c-2.6,0-5-0.7-7.1-2.1
		C392.8,390.7,390.9,388.3,389.1,385.1z"/>
	<path d="M419,385.1l3.7-2.2c2.6,4.7,5.6,7.1,8.9,7.1c1.4,0,2.8-0.3,4.1-1s2.2-1.6,2.9-2.7c0.7-1.1,1-2.3,1-3.6
		c0-1.4-0.5-2.9-1.5-4.2c-1.3-1.9-3.8-4.2-7.4-6.9c-3.6-2.7-5.8-4.7-6.7-5.9c-1.5-2-2.3-4.2-2.3-6.6c0-1.9,0.4-3.6,1.3-5.1
		c0.9-1.5,2.2-2.8,3.8-3.6c1.6-0.9,3.4-1.3,5.3-1.3c2,0,3.9,0.5,5.7,1.5c1.8,1,3.6,2.9,5.6,5.6l-3.5,2.7c-1.6-2.1-3-3.6-4.1-4.2
		c-1.1-0.7-2.4-1-3.7-1c-1.7,0-3.2,0.5-4.3,1.6s-1.7,2.4-1.7,3.9c0,0.9,0.2,1.8,0.6,2.7s1.1,1.8,2.1,2.9c0.6,0.5,2.4,2,5.6,4.3
		c3.7,2.8,6.3,5.2,7.7,7.4c1.4,2.1,2.1,4.3,2.1,6.5c0,3.1-1.2,5.8-3.6,8.1c-2.4,2.3-5.3,3.5-8.7,3.5c-2.6,0-5-0.7-7.1-2.1
		C422.7,390.7,420.8,388.3,419,385.1z"/>
</g>
<g>
	<path d="M155.9,435.2l2.1-1.3c1.5,2.8,3.2,4.2,5.2,4.2c0.8,0,1.6-0.2,2.4-0.6c0.7-0.4,1.3-0.9,1.7-1.6c0.4-0.7,0.6-1.4,0.6-2.1
		c0-0.8-0.3-1.7-0.9-2.5c-0.8-1.1-2.2-2.5-4.3-4c-2.1-1.6-3.4-2.7-3.9-3.4c-0.9-1.2-1.3-2.5-1.3-3.8c0-1.1,0.3-2.1,0.8-3
		c0.5-0.9,1.3-1.6,2.2-2.1s2-0.8,3.1-0.8c1.2,0,2.3,0.3,3.3,0.9s2.1,1.7,3.3,3.2l-2.1,1.6c-0.9-1.3-1.8-2.1-2.4-2.5
		c-0.7-0.4-1.4-0.6-2.2-0.6c-1,0-1.8,0.3-2.5,0.9c-0.6,0.6-1,1.4-1,2.3c0,0.5,0.1,1.1,0.3,1.6c0.2,0.5,0.6,1.1,1.2,1.7
		c0.3,0.3,1.4,1.2,3.2,2.5c2.2,1.6,3.7,3,4.5,4.3c0.8,1.3,1.2,2.5,1.2,3.8c0,1.8-0.7,3.4-2.1,4.8c-1.4,1.3-3.1,2-5.1,2
		c-1.5,0-2.9-0.4-4.2-1.2C158.1,438.5,157,437.1,155.9,435.2z"/>
	<path d="M193.5,414.8h14.4v2.5H196v7.9h11.8v2.5H196v9.9h11.8v2.5h-14.3V414.8z"/>
	<path d="M229.9,414.8h5c2.8,0,4.7,0.1,5.7,0.3c1.5,0.3,2.7,1.1,3.6,2.2c0.9,1.1,1.4,2.5,1.4,4.2c0,1.4-0.3,2.6-1,3.6
		c-0.6,1-1.6,1.8-2.8,2.4s-2.8,0.8-5,0.8l9,11.7h-3.1l-9-11.7h-1.4v11.7h-2.5V414.8z M232.4,417.2v8.5l4.3,0c1.7,0,2.9-0.2,3.7-0.5
		c0.8-0.3,1.4-0.8,1.9-1.5c0.5-0.7,0.7-1.5,0.7-2.3c0-0.8-0.2-1.6-0.7-2.3c-0.5-0.7-1.1-1.2-1.8-1.5c-0.7-0.3-2-0.4-3.7-0.4H232.4z"
		/>
	<path d="M268.1,414.8h2.5v25.1h-2.5V414.8z"/>
	<path d="M293.9,414.8h14.4v2.5h-11.9v7.9h11.8v2.5h-11.8v9.9h11.8v2.5h-14.3V414.8z"/>
	<path d="M327.6,435.2l2.1-1.3c1.5,2.8,3.2,4.2,5.2,4.2c0.8,0,1.6-0.2,2.4-0.6c0.7-0.4,1.3-0.9,1.7-1.6c0.4-0.7,0.6-1.4,0.6-2.1
		c0-0.8-0.3-1.7-0.9-2.5c-0.8-1.1-2.2-2.5-4.3-4c-2.1-1.6-3.4-2.7-3.9-3.4c-0.9-1.2-1.3-2.5-1.3-3.8c0-1.1,0.3-2.1,0.8-3
		c0.5-0.9,1.3-1.6,2.2-2.1s2-0.8,3.1-0.8c1.2,0,2.3,0.3,3.3,0.9s2.1,1.7,3.3,3.2l-2.1,1.6c-0.9-1.3-1.8-2.1-2.4-2.5
		c-0.7-0.4-1.4-0.6-2.2-0.6c-1,0-1.8,0.3-2.5,0.9c-0.6,0.6-1,1.4-1,2.3c0,0.5,0.1,1.1,0.3,1.6c0.2,0.5,0.6,1.1,1.2,1.7
		c0.3,0.3,1.4,1.2,3.2,2.5c2.2,1.6,3.7,3,4.5,4.3s1.2,2.5,1.2,3.8c0,1.8-0.7,3.4-2.1,4.8c-1.4,1.3-3.1,2-5.1,2
		c-1.5,0-2.9-0.4-4.2-1.2C329.7,438.5,328.6,437.1,327.6,435.2z"/>
</g>
<line class="st1" x1="44.4" y1="340.3" x2="448" y2="340.3"/>
<line class="st1" x1="44.4" y1="403.3" x2="448" y2="403.3"/>
<polygon points="58,134.6 62.9,135.7 63.3,140.7 63.2,141.7 62.1,145.2 64.9,150.8 66.2,155.8 65.5,160.8 69.8,166.4 70.1,171.4 
	74.4,176.6 76.8,180.7 76.6,185.6 79.8,191.2 80.7,196.3 79.5,201.2 79.3,206.7 80.1,211.7 80.1,212.2 79.5,213.7 84.5,213.9 
	84.3,218.8 89.2,221.5 88,227 88,227.5 90.8,232.5 89.1,237.5 89.1,239 92.9,244.1 91.7,249.5 91.5,254.5 91.9,255 91.4,256 
	93.2,261.6 94,267.1 92.8,272 92.1,277.5 90.9,282.4 95.8,286.1 97.1,291.1 102.1,291.3 104,291.9 164.8,294.2 170.3,293.9 
	192.2,294.7 196.7,294.4 207.7,294.8 213.2,294.5 218.7,294.7 224.2,294.4 229.7,294.1 234.2,294.2 239.6,294 244.6,294.1 
	249.6,293.8 254.6,294 259.6,293.7 264.6,293.4 269.6,293.6 274.6,293.2 279.6,293.4 284.6,293.1 286.6,293.2 291.6,292.9 
	296.6,292.6 301.6,292.8 307.1,292.5 312.1,292.1 317.1,291.8 322.1,291.5 327.1,291.2 332.1,290.9 337,290.6 342.1,289.8 
	344.9,295.4 349.7,299.5 354.5,303.2 358.3,308.8 359.3,309.4 360.8,309.9 364.4,306.6 365.1,301.1 361.8,296 366,291.2 
	368.5,289.8 373.6,287.9 378.7,285.1 380.3,280.2 380.5,274.7 381.7,271.3 385.9,266.4 389.5,261.6 389.7,256.1 388.9,250.6 
	384.1,245.4 379.8,240.3 380.5,234.8 381.7,229.9 383.9,224.5 389.5,223.2 394.5,222.9 399.5,221.6 403.5,221.2 408.6,217.4 
	414.2,215.1 419.2,213.8 424.4,209.5 424.6,204 425.8,198.6 429.5,193.7 433.1,189.4 434.3,184.4 434.3,183.9 435,178.5 
	435.7,173.5 433.9,168 429.1,162.8 423.7,159.6 418.9,155.4 419,154.4 418.2,148.9 412.8,144.7 408,140.6 404.2,135.9 404.7,134.9 
	403.4,129.9 401.1,124.3 395.7,122.6 390.7,121.5 385.8,120.8 380.4,118.1 378.1,113 378.1,112 377.3,106.5 374,101.4 373.2,96.4 
	373.3,92.4 372.4,89.8 371.7,84.3 374.3,79 377,74.1 374.7,69 370.8,67.3 369,61.8 367.6,59.7 368.2,56.3 368.2,55.8 364.7,55.6 
	358.7,55.9 352.8,56.2 347.3,56 341.3,56.3 335.3,56.5 329.8,56.3 324.8,56.7 318.8,56.4 312.8,56.7 307.3,57 300.3,56.7 294.4,57 
	289.4,56.8 283.9,57.1 278.4,56.9 272.9,57.2 266.9,57 261.4,57.3 254.4,57 248.9,57.3 241,57 235,57.3 229,57.1 223.5,57.4 
	211.5,57 205.5,57.2 194.1,56.8 188.1,57.1 176.6,56.6 170.6,56.9 153.2,56.3 147.2,56.5 128.8,55.9 122.8,56.1 93.9,55.1 
	87.9,55.3 62.5,54.4 53.5,54.1 54,55.1 54.8,60.1 57.6,65.2 56.9,70.7 54.4,71.6 55.6,77.1 60.5,81.3 60.9,82.3 60.8,87.3 
	57.6,92.1 57.9,97.6 55.7,102.6 54,107.5 52.5,108.4 49.8,113.3 51.1,118.8 55.9,123.5 57.2,128.5 58,134.1 58,134.6 "/>
<g>
	<path class="st2" d="M109,136.4H121v63.9H109V136.4z"/>
	<path class="st2" d="M163.1,136.4h12.3l24.6,63.9h-12.6l-5-13.2h-26.1l-5.2,13.2h-12.6L163.1,136.4z M169.4,153.4l-8.6,21.9h17.1
		L169.4,153.4z"/>
	<path class="st2" d="M277.1,147.6l-8.5,8.1c-5.8-6.1-12.3-9.2-19.5-9.2c-6.1,0-11.3,2.1-15.4,6.3c-4.2,4.2-6.3,9.3-6.3,15.4
		c0,4.3,0.9,8,2.8,11.4c1.9,3.3,4.5,5.9,7.9,7.8c3.4,1.9,7.1,2.8,11.3,2.8c3.5,0,6.8-0.7,9.7-2c2.9-1.3,6.1-3.7,9.6-7.2l8.2,8.6
		c-4.7,4.6-9.2,7.8-13.4,9.6c-4.2,1.8-9,2.7-14.4,2.7c-9.9,0-18.1-3.2-24.4-9.5c-6.3-6.3-9.5-14.4-9.5-24.2c0-6.4,1.4-12,4.3-17
		s7-8.9,12.4-12c5.4-3,11.2-4.5,17.4-4.5c5.3,0,10.3,1.1,15.2,3.3S273.6,143.5,277.1,147.6z"/>
	<path class="st2" d="M292.5,136.4h13.7l13.4,20.5l13.5-20.5h13.7l-20.3,31l21.6,32.9h-13.7l-14.7-22.5l-14.7,22.5h-13.8l21.6-33
		L292.5,136.4z"/>
</g>
</svg>
