<?xml version="1.0" encoding="utf-8"?>
<!-- Generator: Adobe Illustrator 20.1.0, SVG Export Plug-In . SVG Version: 6.00 Build 0)  -->
<svg version="1.1" id="Layer_1" xmlns="http://www.w3.org/2000/svg" xmlns:xlink="http://www.w3.org/1999/xlink" x="0px" y="0px"
	 viewBox="0 0 500 500" style="enable-background:new 0 0 500 500;" xml:space="preserve">
<style type="text/css">
	.st0{fill:none;stroke:#000000;stroke-width:2;stroke-miterlimit:10;}
	.st1{font-family:'CenturyGothic';}
	.st2{font-size:60px;}
	.st3{font-size:35px;}
	.st4{letter-spacing:17;}
	.st5{fill:none;stroke:#000000;stroke-width:3;stroke-miterlimit:10;}
	.st6{fill:#FFFFFF;}
	.st7{font-family:'CenturyGothic-Bold';}
	.st8{font-size:89px;}
	.st9{letter-spacing:8;}
</style>
<path class="st0" d="M250,451"/>
<text transform="matrix(1 0 0 1 38.0233 393.093)" class="st1 st2">CYCLOCROSS</text>
<text transform="matrix(1 0 0 1 155.4763 439.9099)" class="st1 st3 st4">SERIES</text>
<line class="st5" x1="44.4" y1="340.3" x2="448" y2="340.3"/>
<line class="st5" x1="44.4" y1="403.3" x2="448" y2="403.3"/>
<polygon points="58,134.6 62.9,135.7 63.3,140.7 63.2,141.7 62.1,145.2 64.9,150.8 66.2,155.8 65.5,160.8 69.8,166.4 70.1,171.4 
	74.4,176.6 76.8,180.7 76.6,185.6 79.8,191.2 80.7,196.3 79.5,201.2 79.3,206.7 80.1,211.7 80.1,212.2 79.5,213.7 84.5,213.9 
	84.3,218.8 89.2,221.5 88,227 88,227.5 90.8,232.5 89.1,237.5 89.1,239 92.9,244.1 91.7,249.5 91.5,254.5 91.9,255 91.4,256 
	93.2,261.6 94,267.1 92.8,272 92.1,277.5 90.9,282.4 95.8,286.1 97.1,291.1 102.1,291.3 104,291.9 164.8,294.2 170.3,293.9 
	192.2,294.7 196.7,294.4 207.7,294.8 213.2,294.5 218.7,294.7 224.2,294.4 229.7,294.1 234.2,294.2 239.6,294 244.6,294.1 
	249.6,293.8 254.6,294 259.6,293.7 264.6,293.4 269.6,293.6 274.6,293.2 279.6,293.4 284.6,293.1 286.6,293.2 291.6,292.9 
	296.6,292.6 301.6,292.8 307.1,292.5 312.1,292.1 317.1,291.8 322.1,291.5 327.1,291.2 332.1,290.9 337,290.6 342.1,289.8 
	344.9,295.4 349.7,299.5 354.5,303.2 358.3,308.8 359.3,309.4 360.8,309.9 364.4,306.6 365.1,301.1 361.8,296 366,291.2 
	368.5,289.8 373.6,287.9 378.7,285.1 380.3,280.2 380.5,274.7 381.7,271.3 385.9,266.4 389.5,261.6 389.7,256.1 388.9,250.6 
	384.1,245.4 379.8,240.3 380.5,234.8 381.7,229.9 383.9,224.5 389.5,223.2 394.5,222.9 399.5,221.6 403.5,221.2 408.6,217.4 
	414.2,215.1 419.2,213.8 424.4,209.5 424.6,204 425.8,198.6 429.5,193.7 433.1,189.4 434.3,184.4 434.3,183.9 435,178.5 
	435.7,173.5 433.9,168 429.1,162.8 423.7,159.6 418.9,155.4 419,154.4 418.2,148.9 412.8,144.7 408,140.6 404.2,135.9 404.7,134.9 
	403.4,129.9 401.1,124.3 395.7,122.6 390.7,121.5 385.8,120.8 380.4,118.1 378.1,113 378.1,112 377.3,106.5 374,101.4 373.2,96.4 
	373.3,92.4 372.4,89.8 371.7,84.3 374.3,79 377,74.1 374.7,69 370.8,67.3 369,61.8 367.6,59.7 368.2,56.3 368.2,55.8 364.7,55.6 
	358.7,55.9 352.8,56.2 347.3,56 341.3,56.3 335.3,56.5 329.8,56.3 324.8,56.7 318.8,56.4 312.8,56.7 307.3,57 300.3,56.7 294.4,57 
	289.4,56.8 283.9,57.1 278.4,56.9 272.9,57.2 266.9,57 261.4,57.3 254.4,57 248.9,57.3 241,57 235,57.3 229,57.1 223.5,57.4 
	211.5,57 205.5,57.2 194.1,56.8 188.1,57.1 176.6,56.6 170.6,56.9 153.2,56.3 147.2,56.5 128.8,55.9 122.8,56.1 93.9,55.1 
	87.9,55.3 62.5,54.4 53.5,54.1 54,55.1 54.8,60.1 57.6,65.2 56.9,70.7 54.4,71.6 55.6,77.1 60.5,81.3 60.9,82.3 60.8,87.3 
	57.6,92.1 57.9,97.6 55.7,102.6 54,107.5 52.5,108.4 49.8,113.3 51.1,118.8 55.9,123.5 57.2,128.5 58,134.1 58,134.6 "/>
<text transform="matrix(1 0 0 1 102.5219 200.3333)" class="st6 st7 st8 st9">IACX</text>
</svg>
